<svg width="23" height="31" viewBox="0 0 23 31" fill="none" xmlns="http://www.w3.org/2000/svg">
<path d="M1.11719 24.5352L7.13281 15.125V14.7383L1.71875 6.53125C1.5612 6.28776 1.41081 6.05143 1.26758 5.82227C1.12435 5.57878 0.988281 5.34245 0.859375 5.11328C0.644531 4.72656 0.44401 4.31836 0.257812 3.88867C0.0859375 3.45898 0 3.09375 0 2.79297C0 2.40625 0.107422 2.01237 0.322266 1.61133C0.551432 1.21029 0.945312 0.845052 1.50391 0.515625C2.14844 0.171875 2.73568 0 3.26562 0C4.08203 0 4.75521 0.329427 5.28516 0.988281C5.82943 1.63281 6.33073 2.33464 6.78906 3.09375L10.7852 9.66797H11.4297L15.4258 3.09375C15.8984 2.33464 16.3997 1.63281 16.9297 0.988281C17.4596 0.329427 18.1328 0 18.9492 0C19.207 0 19.4792 0.0501302 19.7656 0.150391C20.0664 0.250651 20.3815 0.386719 20.7109 0.558594C21.3125 0.888021 21.7279 1.24609 21.957 1.63281C22.1862 2.00521 22.3008 2.3776 22.3008 2.75C22.3008 3.0651 22.2077 3.4375 22.0215 3.86719C21.8353 4.29688 21.6276 4.71224 21.3984 5.11328C21.1406 5.58594 20.8398 6.05859 20.4961 6.53125L15.125 14.7383V15.125L21.0977 24.5352C21.3984 25.0078 21.6562 25.4805 21.8711 25.9531C22.1003 26.4115 22.2148 26.8698 22.2148 27.3281C22.2148 27.7148 22.1074 28.1016 21.8926 28.4883C21.6921 28.8607 21.3125 29.2188 20.7539 29.5625C20.1094 29.9062 19.5221 30.0781 18.9922 30.0781C18.2474 30.0781 17.6315 29.806 17.1445 29.2617C16.6576 28.7174 16.1992 28.1159 15.7695 27.457L11.4297 20.4102H10.7852L6.44531 27.457C6.01562 28.1159 5.55729 28.7174 5.07031 29.2617C4.58333 29.806 3.98177 30.0781 3.26562 30.0781C2.72135 30.0781 2.14844 29.9062 1.54688 29.5625C0.959635 29.2188 0.551432 28.8607 0.322266 28.4883C0.107422 28.1016 0 27.7148 0 27.3281C0 26.8698 0.107422 26.4115 0.322266 25.9531C0.551432 25.4805 0.816406 25.0078 1.11719 24.5352Z" fill="white"/>
</svg>
